<?xml version="1.0" encoding="UTF-8" standalone="no"?>
<!-- Created with Inkscape (http://www.inkscape.org/) -->

<svg
   width="30.901899mm"
   height="28.86187mm"
   viewBox="0 0 30.901899 28.86187"
   version="1.1"
   id="svg1"
   xml:space="preserve"
   xmlns:xlink="http://www.w3.org/1999/xlink"
   xmlns="http://www.w3.org/2000/svg"
   xmlns:svg="http://www.w3.org/2000/svg"><defs
     id="defs1"><linearGradient
       id="linearGradient32"><stop
         style="stop-color:#0267fd;stop-opacity:1;"
         offset="0"
         id="stop33" /><stop
         style="stop-color:#0267fd;stop-opacity:0;"
         offset="1"
         id="stop34" /></linearGradient><linearGradient
       id="linearGradient16"><stop
         style="stop-color:#03045e;stop-opacity:1;"
         offset="0"
         id="stop16" /><stop
         style="stop-color:#013d8a;stop-opacity:1;"
         offset="0.21666665"
         id="stop32" /><stop
         style="stop-color:#0495f0;stop-opacity:1;"
         offset="0.68611115"
         id="stop19" /><stop
         style="stop-color:#82ccf9;stop-opacity:1;"
         offset="0.85000002"
         id="stop21" /></linearGradient><linearGradient
       xlink:href="#linearGradient16"
       id="linearGradient17"
       x1="20.391035"
       y1="127.40075"
       x2="36.63522"
       y2="106.60914"
       gradientUnits="userSpaceOnUse"
       gradientTransform="translate(12.294955,9.6054334)" /><linearGradient
       xlink:href="#linearGradient32"
       id="linearGradient34"
       x1="10.563578"
       y1="112.31742"
       x2="39.276714"
       y2="104.29688"
       gradientUnits="userSpaceOnUse"
       gradientTransform="matrix(0.96911199,0,0,1,12.62866,9.6054334)" /></defs><g
     id="layer2"
     transform="translate(-23.098645,-112.17946)"><path
       style="fill:#0260ed;fill-opacity:1;stroke-width:0.507625"
       d="m 27.628046,134.83416 -0.118861,-12.2427 c 1.918572,1.92307 7.099162,-0.46867 6.656226,6.23547 v 5.86558 z"
       id="path15" /><path
       style="fill:url(#linearGradient17);fill-opacity:1;stroke-width:0.465"
       d="m 48.951689,112.17945 1.032585,0.86449 c -0.2929,0.22773 -0.652233,1.66088 0.244617,2.3604 0.489517,0.38181 1.282465,1.0324 2.645503,0.036 l 1.126151,0.95952 -19.649114,23.40724 c -1.176679,1.66497 -6.289374,2.252 -6.69979,-2.20925 l -0.03602,-3.65007 c 2.10954,1.45138 4.352117,-1.48746 6.585725,-4.13033 z"
       id="path12" /><path
       style="fill:url(#linearGradient34);stroke-width:0.465743"
       d="m 23.102847,116.69935 -0.0042,-1.28625 21.310112,-0.0212 -5.45103,6.62226 -15.850565,0.004 -0.0085,-1.54095 c 1.311922,-0.15413 1.927391,-0.82025 1.954704,-1.91876 0.08352,-0.83209 -0.661693,-1.91843 -1.950481,-1.8591 z"
       id="path14" /></g></svg>
